<svg id="visual" viewBox="0 0 960 540" width="960" height="540" xmlns="http://www.w3.org/2000/svg" xmlns:xlink="http://www.w3.org/1999/xlink" version="1.1"><rect x="0" y="0" width="960" height="540" fill="#001122"></rect><defs><linearGradient id="grad1_0" x1="43.8%" y1="0%" x2="100%" y2="100%"><stop offset="14.444444444444446%" stop-color="#001122" stop-opacity="1"></stop><stop offset="85.55555555555554%" stop-color="#001122" stop-opacity="1"></stop></linearGradient></defs><defs><linearGradient id="grad2_0" x1="0%" y1="0%" x2="56.3%" y2="100%"><stop offset="14.444444444444446%" stop-color="#001122" stop-opacity="1"></stop><stop offset="85.55555555555554%" stop-color="#001122" stop-opacity="1"></stop></linearGradient></defs><g transform="translate(960, 0)"><path d="M0 243C-18.4 242.5 -36.8 242 -54.1 236.9C-71.3 231.8 -87.5 222 -101.5 210.8C-115.6 199.7 -127.6 187.2 -139 174.3C-150.5 161.5 -161.2 148.2 -167.3 133.4C-173.4 118.7 -174.7 102.4 -185.6 89.4C-196.5 76.3 -217 66.4 -228.1 52.1C-239.3 37.7 -241.1 18.9 -243 0L0 0Z" fill="#e3b97a"></path></g><g transform="translate(0, 540)"><path d="M0 -243C19.2 -242 38.4 -241 52.7 -231.1C67.1 -221.1 76.5 -202.2 95 -197.3C113.6 -192.4 141.2 -201.4 151.5 -190C161.8 -178.6 154.7 -146.7 161.8 -129.1C169 -111.4 190.4 -107.9 200.9 -96.8C211.5 -85.6 211.2 -66.8 216.4 -49.4C221.6 -32 232.3 -16 243 0L0 0Z" fill="#e3b97a"></path></g></svg>