<svg id="visual" viewBox="0 0 960 540" width="960" height="540" xmlns="http://www.w3.org/2000/svg" xmlns:xlink="http://www.w3.org/1999/xlink" version="1.1"><rect x="0" y="0" width="960" height="540" fill="#001220"></rect><defs><linearGradient id="grad1_0" x1="43.8%" y1="100%" x2="100%" y2="0%"><stop offset="14.444444444444446%" stop-color="#3cc6fa" stop-opacity="1"></stop><stop offset="85.55555555555554%" stop-color="#3cc6fa" stop-opacity="1"></stop></linearGradient></defs><defs><linearGradient id="grad1_1" x1="43.8%" y1="100%" x2="100%" y2="0%"><stop offset="14.444444444444446%" stop-color="#3cc6fa" stop-opacity="1"></stop><stop offset="85.55555555555554%" stop-color="#37a9d8" stop-opacity="1"></stop></linearGradient></defs><defs><linearGradient id="grad1_2" x1="43.8%" y1="100%" x2="100%" y2="0%"><stop offset="14.444444444444446%" stop-color="#318cb7" stop-opacity="1"></stop><stop offset="85.55555555555554%" stop-color="#37a9d8" stop-opacity="1"></stop></linearGradient></defs><defs><linearGradient id="grad1_3" x1="43.8%" y1="100%" x2="100%" y2="0%"><stop offset="14.444444444444446%" stop-color="#318cb7" stop-opacity="1"></stop><stop offset="85.55555555555554%" stop-color="#297196" stop-opacity="1"></stop></linearGradient></defs><defs><linearGradient id="grad1_4" x1="43.8%" y1="100%" x2="100%" y2="0%"><stop offset="14.444444444444446%" stop-color="#205777" stop-opacity="1"></stop><stop offset="85.55555555555554%" stop-color="#297196" stop-opacity="1"></stop></linearGradient></defs><defs><linearGradient id="grad1_5" x1="43.8%" y1="100%" x2="100%" y2="0%"><stop offset="14.444444444444446%" stop-color="#205777" stop-opacity="1"></stop><stop offset="85.55555555555554%" stop-color="#163e58" stop-opacity="1"></stop></linearGradient></defs><defs><linearGradient id="grad1_6" x1="43.8%" y1="100%" x2="100%" y2="0%"><stop offset="14.444444444444446%" stop-color="#0c283b" stop-opacity="1"></stop><stop offset="85.55555555555554%" stop-color="#163e58" stop-opacity="1"></stop></linearGradient></defs><defs><linearGradient id="grad1_7" x1="43.8%" y1="100%" x2="100%" y2="0%"><stop offset="14.444444444444446%" stop-color="#0c283b" stop-opacity="1"></stop><stop offset="85.55555555555554%" stop-color="#001220" stop-opacity="1"></stop></linearGradient></defs><defs><linearGradient id="grad2_0" x1="0%" y1="100%" x2="56.3%" y2="0%"><stop offset="14.444444444444446%" stop-color="#3cc6fa" stop-opacity="1"></stop><stop offset="85.55555555555554%" stop-color="#3cc6fa" stop-opacity="1"></stop></linearGradient></defs><defs><linearGradient id="grad2_1" x1="0%" y1="100%" x2="56.3%" y2="0%"><stop offset="14.444444444444446%" stop-color="#37a9d8" stop-opacity="1"></stop><stop offset="85.55555555555554%" stop-color="#3cc6fa" stop-opacity="1"></stop></linearGradient></defs><defs><linearGradient id="grad2_2" x1="0%" y1="100%" x2="56.3%" y2="0%"><stop offset="14.444444444444446%" stop-color="#37a9d8" stop-opacity="1"></stop><stop offset="85.55555555555554%" stop-color="#318cb7" stop-opacity="1"></stop></linearGradient></defs><defs><linearGradient id="grad2_3" x1="0%" y1="100%" x2="56.3%" y2="0%"><stop offset="14.444444444444446%" stop-color="#297196" stop-opacity="1"></stop><stop offset="85.55555555555554%" stop-color="#318cb7" stop-opacity="1"></stop></linearGradient></defs><defs><linearGradient id="grad2_4" x1="0%" y1="100%" x2="56.3%" y2="0%"><stop offset="14.444444444444446%" stop-color="#297196" stop-opacity="1"></stop><stop offset="85.55555555555554%" stop-color="#205777" stop-opacity="1"></stop></linearGradient></defs><defs><linearGradient id="grad2_5" x1="0%" y1="100%" x2="56.3%" y2="0%"><stop offset="14.444444444444446%" stop-color="#163e58" stop-opacity="1"></stop><stop offset="85.55555555555554%" stop-color="#205777" stop-opacity="1"></stop></linearGradient></defs><defs><linearGradient id="grad2_6" x1="0%" y1="100%" x2="56.3%" y2="0%"><stop offset="14.444444444444446%" stop-color="#163e58" stop-opacity="1"></stop><stop offset="85.55555555555554%" stop-color="#0c283b" stop-opacity="1"></stop></linearGradient></defs><defs><linearGradient id="grad2_7" x1="0%" y1="100%" x2="56.3%" y2="0%"><stop offset="14.444444444444446%" stop-color="#001220" stop-opacity="1"></stop><stop offset="85.55555555555554%" stop-color="#0c283b" stop-opacity="1"></stop></linearGradient></defs><g transform="translate(960, 540)"><path d="M-486 0C-483.9 -68.6 -481.9 -137.3 -449 -186C-416.1 -234.7 -352.4 -263.4 -305.5 -305.5C-258.5 -347.5 -228.4 -402.8 -180.2 -435.1C-132.1 -467.5 -66.1 -476.7 0 -486L0 0Z" fill="#071d2d"></path><path d="M-425.2 0C-423.5 -60.1 -421.7 -120.1 -392.9 -162.7C-364.1 -205.3 -308.4 -230.5 -267.3 -267.3C-226.2 -304.1 -199.8 -352.5 -157.7 -380.8C-115.6 -409 -57.8 -417.1 0 -425.2L0 0Z" fill="#113349"></path><path d="M-364.5 0C-363 -51.5 -361.4 -103 -336.8 -139.5C-312.1 -176 -264.3 -197.6 -229.1 -229.1C-193.9 -260.6 -171.3 -302.1 -135.2 -326.4C-99.1 -350.6 -49.5 -357.5 0 -364.5L0 0Z" fill="#1b4b67"></path><path d="M-303.7 0C-302.5 -42.9 -301.2 -85.8 -280.6 -116.2C-260.1 -146.7 -220.3 -164.6 -190.9 -190.9C-161.6 -217.2 -142.7 -251.8 -112.7 -272C-82.6 -292.2 -41.3 -298 0 -303.7L0 0Z" fill="#256486"></path><path d="M-243 0C-242 -34.3 -240.9 -68.6 -224.5 -93C-208.1 -117.3 -176.2 -131.7 -152.7 -152.7C-129.3 -173.8 -114.2 -201.4 -90.1 -217.6C-66.1 -233.7 -33 -238.4 0 -243L0 0Z" fill="#2d7ea7"></path><path d="M-182.2 0C-181.5 -25.7 -180.7 -51.5 -168.4 -69.7C-156 -88 -132.2 -98.8 -114.6 -114.6C-96.9 -130.3 -85.6 -151.1 -67.6 -163.2C-49.5 -175.3 -24.8 -178.8 0 -182.2L0 0Z" fill="#349ac8"></path><path d="M-121.5 0C-121 -17.2 -120.5 -34.3 -112.3 -46.5C-104 -58.7 -88.1 -65.9 -76.4 -76.4C-64.6 -86.9 -57.1 -100.7 -45.1 -108.8C-33 -116.9 -16.5 -119.2 0 -121.5L0 0Z" fill="#3ab7e9"></path><path d="M-60.7 0C-60.5 -8.6 -60.2 -17.2 -56.1 -23.2C-52 -29.3 -44.1 -32.9 -38.2 -38.2C-32.3 -43.4 -28.5 -50.4 -22.5 -54.4C-16.5 -58.4 -8.3 -59.6 0 -60.7L0 0Z" fill="#3cc6fa"></path></g><g transform="translate(0, 0)"><path d="M486 0C482.2 66 478.4 132 449 186C419.6 239.9 364.6 281.8 313.2 313.2C261.9 344.7 214.2 365.6 162.6 392.6C111 419.7 55.5 452.8 0 486L0 0Z" fill="#071d2d"></path><path d="M425.3 0C421.9 57.8 418.6 115.5 392.9 162.7C367.2 209.9 319 246.6 274.1 274.1C229.2 301.6 187.5 319.9 142.3 343.6C97.2 367.2 48.6 396.2 0 425.3L0 0Z" fill="#113349"></path><path d="M364.5 0C361.7 49.5 358.8 99 336.8 139.5C314.7 180 273.4 211.4 234.9 234.9C196.4 258.5 160.7 274.2 122 294.5C83.3 314.8 41.6 339.6 0 364.5L0 0Z" fill="#1b4b67"></path><path d="M303.8 0C301.4 41.3 299 82.5 280.6 116.2C262.3 150 227.9 176.1 195.8 195.8C163.7 215.4 133.9 228.5 101.7 245.4C69.4 262.3 34.7 283 0 303.8L0 0Z" fill="#256486"></path><path d="M243 0C241.1 33 239.2 66 224.5 93C209.8 120 182.3 140.9 156.6 156.6C131 172.3 107.1 182.8 81.3 196.3C55.5 209.8 27.8 226.4 0 243L0 0Z" fill="#2d7ea7"></path><path d="M182.3 0C180.8 24.8 179.4 49.5 168.4 69.7C157.4 90 136.7 105.7 117.5 117.5C98.2 129.2 80.3 137.1 61 147.2C41.6 157.4 20.8 169.8 0 182.3L0 0Z" fill="#349ac8"></path><path d="M121.5 0C120.6 16.5 119.6 33 112.3 46.5C104.9 60 91.1 70.5 78.3 78.3C65.5 86.2 53.6 91.4 40.7 98.2C27.8 104.9 13.9 113.2 0 121.5L0 0Z" fill="#3ab7e9"></path><path d="M60.8 0C60.3 8.3 59.8 16.5 56.1 23.2C52.5 30 45.6 35.2 39.2 39.2C32.7 43.1 26.8 45.7 20.3 49.1C13.9 52.5 6.9 56.6 0 60.8L0 0Z" fill="#3cc6fa"></path></g></svg>