<svg id="visual" viewBox="0 0 960 540" width="960" height="540" xmlns="http://www.w3.org/2000/svg" xmlns:xlink="http://www.w3.org/1999/xlink" version="1.1"><rect x="0" y="0" width="960" height="540" fill="#EBECF0"></rect><g transform="translate(526.6328846650744 279.22869327397166)"><path d="M90 -144C111.4 -108.3 119.9 -75 127.5 -43.4C135.1 -11.7 141.7 18.2 142.2 55.3C142.6 92.3 136.8 136.3 112.1 165.8C87.4 195.3 43.7 210.1 8.5 198.4C-26.6 186.7 -53.3 148.4 -96.1 124.8C-138.9 101.2 -197.8 92.3 -221.9 61.8C-246 31.3 -235.2 -20.8 -211.6 -61.1C-188 -101.5 -151.6 -130 -114.2 -160.5C-76.8 -191 -38.4 -223.5 -2.1 -220.7C34.3 -217.9 68.6 -179.7 90 -144" fill="#002233"></path></g></svg>