<svg id="visual" viewBox="0 0 960 540" width="960" height="540" xmlns="http://www.w3.org/2000/svg" xmlns:xlink="http://www.w3.org/1999/xlink" version="1.1"><path d="M0 71L87 71L87 136L175 136L175 50L262 50L262 104L349 104L349 50L436 50L436 147L524 147L524 71L611 71L611 141L698 141L698 114L785 114L785 114L873 114L873 131L960 131L960 71L960 0L960 0L873 0L873 0L785 0L785 0L698 0L698 0L611 0L611 0L524 0L524 0L436 0L436 0L349 0L349 0L262 0L262 0L175 0L175 0L87 0L87 0L0 0Z" fill="#99b998"></path><path d="M0 190L87 190L87 201L175 201L175 87L262 87L262 174L349 174L349 104L436 104L436 195L524 195L524 141L611 141L611 217L698 217L698 179L785 179L785 185L873 185L873 201L960 201L960 109L960 69L960 129L873 129L873 112L785 112L785 112L698 112L698 139L611 139L611 69L524 69L524 145L436 145L436 48L349 48L349 102L262 102L262 48L175 48L175 134L87 134L87 69L0 69Z" fill="#7b9177"></path><path d="M0 233L87 233L87 239L175 239L175 168L262 168L262 260L349 260L349 179L436 179L436 249L524 249L524 174L611 174L611 266L698 266L698 260L785 260L785 266L873 266L873 293L960 293L960 141L960 107L960 199L873 199L873 183L785 183L785 177L698 177L698 215L611 215L611 139L524 139L524 193L436 193L436 102L349 102L349 172L262 172L262 85L175 85L175 199L87 199L87 188L0 188Z" fill="#5d6b58"></path><path d="M0 352L87 352L87 352L175 352L175 444L262 444L262 352L349 352L349 303L436 303L436 379L524 379L524 401L611 401L611 352L698 352L698 341L785 341L785 471L873 471L873 417L960 417L960 390L960 139L960 291L873 291L873 264L785 264L785 258L698 258L698 264L611 264L611 172L524 172L524 247L436 247L436 177L349 177L349 258L262 258L262 166L175 166L175 237L87 237L87 231L0 231Z" fill="#40483b"></path><path d="M0 541L87 541L87 541L175 541L175 541L262 541L262 541L349 541L349 541L436 541L436 541L524 541L524 541L611 541L611 541L698 541L698 541L785 541L785 541L873 541L873 541L960 541L960 541L960 388L960 415L873 415L873 469L785 469L785 339L698 339L698 350L611 350L611 399L524 399L524 377L436 377L436 301L349 301L349 350L262 350L262 442L175 442L175 350L87 350L87 350L0 350Z" fill="#242721"></path></svg>