<svg id="visual" viewBox="0 0 960 540" width="960" height="540" xmlns="http://www.w3.org/2000/svg" xmlns:xlink="http://www.w3.org/1999/xlink" version="1.1"><rect x="0" y="0" width="960" height="540" fill="#002233"></rect><path d="M0 418L13.3 420.2C26.7 422.3 53.3 426.7 80 429.5C106.7 432.3 133.3 433.7 160 428C186.7 422.3 213.3 409.7 240 404.7C266.7 399.7 293.3 402.3 320 405.3C346.7 408.3 373.3 411.7 400 414.8C426.7 418 453.3 421 480 425.7C506.7 430.3 533.3 436.7 560 431.8C586.7 427 613.3 411 640 400.8C666.7 390.7 693.3 386.3 720 383.3C746.7 380.3 773.3 378.7 800 375.8C826.7 373 853.3 369 880 375.5C906.7 382 933.3 399 946.7 407.5L960 416L960 541L946.7 541C933.3 541 906.7 541 880 541C853.3 541 826.7 541 800 541C773.3 541 746.7 541 720 541C693.3 541 666.7 541 640 541C613.3 541 586.7 541 560 541C533.3 541 506.7 541 480 541C453.3 541 426.7 541 400 541C373.3 541 346.7 541 320 541C293.3 541 266.7 541 240 541C213.3 541 186.7 541 160 541C133.3 541 106.7 541 80 541C53.3 541 26.7 541 13.3 541L0 541Z" fill="#0066FF" stroke-linecap="round" stroke-linejoin="miter"></path></svg>